<?xml version="1.0" encoding="UTF-8"?><svg id="Lager_1" xmlns="http://www.w3.org/2000/svg" viewBox="0 0 485.87 500"><path d="M35.92,472.52c1.09-1.29,1.64-3.08,1.64-5.37,0-2.66-.72-4.7-2.14-6.12-1.43-1.42-3.46-2.13-6.1-2.13h-11.9v25.96h4.96v-9.55h4.44l5.33,9.55h5.48l-5.71-9.77c1.57-.42,2.9-1.28,3.99-2.57Zm-6.3-1.19h-7.24v-8.39h7.24c1.89,0,2.83,.95,2.83,2.83v2.57c0,.82-.23,1.52-.69,2.11-.46,.59-1.18,.88-2.14,.88Z"/><path d="M46.29,452.69c-2.44-2.45-5.31-4.38-8.62-5.8-3.31-1.42-6.83-2.13-10.56-2.13s-7.31,.71-10.59,2.13-6.15,3.35-8.6,5.8c-2.45,2.45-4.38,5.33-5.8,8.63-1.42,3.31-2.13,6.83-2.13,10.56s.71,7.3,2.13,10.57c1.42,3.27,3.35,6.13,5.8,8.58,2.45,2.45,5.31,4.39,8.6,5.82,3.28,1.43,6.81,2.15,10.59,2.15s7.22-.72,10.54-2.15c3.32-1.43,6.2-3.37,8.63-5.82,2.44-2.45,4.37-5.31,5.8-8.58,1.43-3.27,2.14-6.79,2.14-10.57s-.72-7.25-2.14-10.56c-1.43-3.31-3.36-6.18-5.8-8.63Zm1.27,27.69c-1.14,2.63-2.71,4.92-4.7,6.85-1.99,1.93-4.33,3.46-7.03,4.59-2.7,1.13-5.6,1.69-8.71,1.69s-6.01-.56-8.71-1.69c-2.7-1.13-5.04-2.66-7.03-4.59-1.99-1.93-3.56-4.21-4.7-6.85-1.14-2.63-1.72-5.47-1.72-8.5s.57-5.87,1.72-8.5c1.14-2.63,2.71-4.92,4.7-6.86,1.99-1.94,4.33-3.47,7.03-4.59,2.7-1.12,5.6-1.68,8.71-1.68s6.01,.56,8.71,1.68c2.7,1.12,5.04,2.65,7.03,4.59,1.99,1.94,3.56,4.23,4.7,6.86,1.14,2.63,1.72,5.47,1.72,8.5s-.57,5.87-1.72,8.5Z"/><path d="M299.45,319.76c5.2,8.1,15.41,18.59,34.49,22.62,5.46,1.16,11.29,1.68,17.36,1.68,51.87,0,121.49-38.22,134.57-46.83l-26.54-40.28c-24.72,16.29-88.88,43.85-115.41,38.24-1.9-.4-3.04-.9-3.57-1.24-3.26-12.88,6.24-72.26,65.3-212.65l-44.46-18.71c-89.82,213.52-70.15,244.11-61.74,257.17Z"/><path d="M279.6,434.15c-52.57,21.69-96.76,23.09-131.34,4.15-91.75-50.24-45.18-264.94-7.74-371.45l-45.51-16c-5.32,15.12-32.41,95.03-43.6,183.02-16.28,128.04,8.51,211.05,73.67,246.73,25.11,13.75,51.48,19.11,77.4,19.11,89.91-.01,174.07-64.64,178.59-68.17l-29.68-38.03c-.3,.23-30.38,23.53-71.8,40.62Z"/><path d="M180.24,251.44c13.18-93.84,58.15-212.53,66.45-232.01L202.32,.51c-10.52,24.66-56.01,145.65-69.85,244.22l47.77,6.71Z"/><path d="M255.25,278.14C276.71,150.1,335.96,21.47,336.55,20.21L292.88-.27c-.62,1.32-62.68,136.06-85.2,270.44l47.57,7.97Z"/></svg>